<svg width="27" height="27" viewBox="0 0 27 27" fill="none" xmlns="http://www.w3.org/2000/svg">
<g id="olive-oil 3">
<path id="Vector" d="M3.3497 25.0848C3.56199 25.0848 3.776 24.9941 3.87488 24.7968C4.03543 24.4764 3.82096 24.0884 3.35339 23.8533C3.02613 23.6887 2.48658 23.5963 2.28511 23.9985C2.12457 24.3189 2.33903 24.7069 2.8066 24.942C2.99376 25.0362 3.18222 25.0848 3.3497 25.0848Z" fill="black"/>
<path id="Vector_2" d="M7.7852 23.8533C7.26158 23.8533 6.89587 24.1038 6.89587 24.4625C6.89587 24.8212 7.26158 25.0717 7.7852 25.0717C8.30881 25.0717 8.67452 24.8212 8.67452 24.4625C8.67457 24.1038 8.30887 23.8533 7.7852 23.8533Z" fill="black"/>
<path id="Vector_3" d="M26.7676 11.7363C26.7676 8.75019 24.3419 6.32083 21.3604 6.32083C20.9648 6.32083 20.5767 6.36321 20.1983 6.44642L20.6113 5.97687C21.1037 5.41699 21.3749 4.69767 21.3749 3.95155V3.18372C21.3749 2.70315 20.9843 2.31216 20.5042 2.31216H20.2583V1.75055C20.2583 1.02122 19.665 0.427902 18.9356 0.427902H14.7868C14.0575 0.427902 13.4642 1.02122 13.4642 1.75055V2.31221H13.3689C12.8888 2.31221 12.4982 2.7032 12.4982 3.18377V3.9516C12.4982 4.69767 12.7694 5.41694 13.2618 5.97692L14.1637 7.00231C14.3202 7.1803 14.4064 7.40888 14.4064 7.64955C14.4064 7.85951 14.5766 8.02789 14.7865 8.02789C14.9965 8.02789 15.1666 7.85602 15.1666 7.64606C15.1666 7.22395 15.0132 6.81703 14.7346 6.50019L13.8327 5.4748C13.4624 5.05366 13.2585 4.5127 13.2585 3.9515V3.18367C13.2585 3.12227 13.308 3.07229 13.369 3.07229H20.5043C20.5652 3.07229 20.6148 3.12222 20.6148 3.18367V3.9515C20.6148 4.51275 20.4108 5.05371 20.0405 5.4748L19.1387 6.50019C18.8601 6.81693 18.7067 7.2239 18.7067 7.6495C18.7067 9.01185 19.0907 10.3421 19.7942 11.4953H14.081C14.4942 10.819 14.7984 10.0798 14.9789 9.29743C15.026 9.09288 14.8984 8.88884 14.6939 8.84159C14.4893 8.7944 14.2853 8.92202 14.2381 9.12657C13.9313 10.4565 13.2294 11.6502 12.208 12.5789C10.698 13.9519 8.90462 16.2519 8.83962 19.4568C8.61969 19.3514 8.38363 19.2805 8.14225 19.2458C8.1246 18.6523 8.19036 17.2945 9.02692 16.1373L9.19101 15.925C9.31797 15.7608 9.28959 15.525 9.12727 15.3954C8.96496 15.2659 8.7288 15.2906 8.59683 15.451C8.53345 15.5279 8.47341 15.6057 8.41636 15.6842L7.01348 17.4994C6.93589 16.8009 6.70443 15.9235 6.07667 15.2947C4.89276 14.1088 2.82596 14.3338 2.73845 14.3439C2.56324 14.3643 2.42505 14.5026 2.40477 14.6778C2.3946 14.7653 2.17012 16.8349 3.35367 18.0204C4.07906 18.747 5.1355 18.9437 5.86544 18.985L5.33712 19.6686C4.17274 19.1373 2.87735 19.5656 1.93416 20.8029C1.8069 20.9698 1.83907 21.2083 2.00604 21.3356C2.173 21.4629 2.41155 21.4307 2.53876 21.2637C3.27087 20.3032 4.24739 19.9689 5.08755 20.3913C6.13772 20.9194 6.34055 22.2774 5.59225 23.7704C5.15098 24.6509 4.54496 25.2562 3.88574 25.4747C3.44528 25.6208 2.99611 25.5892 2.58666 25.3833C1.655 24.9149 1.37827 23.8108 1.86436 22.502C1.93745 22.3053 1.83719 22.0865 1.64043 22.0134C1.44367 21.9403 1.22486 22.0405 1.15177 22.2374C0.529011 23.9139 0.958142 25.4154 2.24513 26.0625C2.83046 26.3569 3.50355 26.4025 4.12494 26.1963C4.6921 26.0083 5.20621 25.6321 5.64561 25.0921C6.1358 25.8748 6.90139 26.3255 7.78545 26.3255C8.55515 26.3255 9.24993 25.9813 9.74174 25.3562C10.0076 25.0184 10.2064 24.6085 10.3353 24.1422C10.6429 24.6061 10.9967 25.0684 11.3939 25.5246C11.8373 26.0337 12.48 26.3256 13.1572 26.3256H20.7159C21.3931 26.3256 22.0359 26.0337 22.4792 25.5246C23.7104 24.1108 24.507 22.6672 24.8465 21.2338C24.8949 21.0295 24.7686 20.8247 24.5643 20.7763C24.36 20.728 24.1552 20.8543 24.1068 21.0585C23.7959 22.3708 23.0554 23.7054 21.9059 25.0253C21.607 25.3685 21.1733 25.5653 20.7159 25.5653H13.1571C12.6998 25.5653 12.266 25.3685 11.9671 25.0253C11.3711 24.341 10.8804 23.6451 10.5067 22.9553C10.5124 22.7655 10.5096 22.5754 10.4972 22.3858C10.4395 21.5015 10.1812 20.7477 9.74164 20.189C9.69996 20.1359 9.6559 20.085 9.61048 20.0351C9.60132 19.9002 9.59667 19.7665 9.59667 19.636C9.59667 16.615 11.2948 14.4367 12.7195 13.1414C13.0219 12.8664 13.2984 12.5698 13.5489 12.2556H20.3253C20.5754 12.5704 20.8518 12.8671 21.1535 13.1414C22.5782 14.4368 24.2764 16.615 24.2764 19.636C24.2764 19.846 24.4465 20.0161 24.6565 20.0161C24.8665 20.0161 25.0366 19.846 25.0366 19.636C25.0366 18.3683 24.7652 17.2398 24.3445 16.2507C25.8472 15.2523 26.7676 13.5529 26.7676 11.7363ZM14.2244 1.75055C14.2244 1.44044 14.4767 1.18814 14.7868 1.18814H18.9356C19.2457 1.18814 19.498 1.44044 19.498 1.75055V2.31221H14.2244V1.75055ZM7.44059 18.1899C7.38045 18.6218 7.37337 18.9934 7.3809 19.254C6.93513 19.3281 6.5236 19.5236 6.17707 19.8247L7.44059 18.1899ZM3.89155 17.4834C3.20587 16.7966 3.1342 15.6382 3.14336 15.0819C3.69763 15.0714 4.85032 15.1425 5.53853 15.8318C6.22421 16.5187 6.29589 17.677 6.28673 18.2333C5.73287 18.2442 4.57986 18.1727 3.89155 17.4834ZM9.74937 22.7726C9.74937 24.443 8.9601 25.5653 7.78535 25.5653C7.06204 25.5653 6.46523 25.1366 6.12629 24.3821C6.17606 24.2941 6.22492 24.2044 6.27171 24.1111C6.74277 23.1712 6.90564 22.2534 6.74267 21.4571C6.68243 21.1627 6.57828 20.8912 6.43504 20.6486C6.78106 20.2154 7.25293 19.9797 7.7853 19.9797C8.9601 19.9798 9.74937 21.1022 9.74937 22.7726ZM21.665 12.579C20.7703 11.7655 20.1205 10.7359 19.7685 9.61068C20.226 9.26592 20.7829 9.07816 21.3604 9.07816C22.8233 9.07816 24.0135 10.2706 24.0135 11.7363C24.0135 12.5964 23.5972 13.3965 22.9094 13.8926C22.5002 13.3878 22.0723 12.9494 21.665 12.579ZM24.0138 15.5559C23.8155 15.1804 23.5974 14.8282 23.3673 14.4995C24.2437 13.8609 24.7737 12.8368 24.7737 11.7363C24.7737 9.8514 23.2425 8.31793 21.3604 8.31793C20.7244 8.31793 20.1078 8.49481 19.574 8.82384C19.5034 8.4373 19.4667 8.04332 19.4667 7.64611C19.4667 7.58956 19.472 7.53361 19.4816 7.47863C20.0744 7.21495 20.7055 7.08106 21.3604 7.08106C23.9228 7.08106 26.0074 9.16941 26.0074 11.7363C26.0074 13.2614 25.2524 14.6902 24.0138 15.5559Z" fill="black"/>
</g>
</svg>
